<svg width="49" height="31" viewBox="0 0 49 31" fill="none" xmlns="http://www.w3.org/2000/svg">
<path d="M25.1994 2.88721L28.5377 4.40459L31.269 5.31502H33.6968L35.8211 4.40459L38.2489 2.88721H39.4628L40.9802 6.22545L43.7115 13.5089L45.8358 18.668L47.3532 22.9166V25.3445L45.5323 27.7723L42.1941 29.2896L38.2489 28.3792L37.9454 29.2896C37.9454 29.2896 36.3356 30.4229 35.2142 30.5036C34.0086 30.5902 32.1794 29.5931 32.1794 29.5931C32.1794 29.5931 30.5713 30.4527 29.4481 30.5036C27.7991 30.5782 25.5029 28.9862 25.5029 28.9862C24.896 29.1885 23.4393 29.5324 22.4681 29.2896C21.497 29.0469 18.4218 29.3908 17.0056 29.5931H12.4534L7.59781 29.2896L3.95609 28.9862L2.74219 27.7723V25.3445L3.95609 24.434H6.68738H10.3291H12.15C13.9708 24.434 16.2772 24.7375 17.0056 24.7375C17.0869 24.7375 17.1614 24.7728 17.2292 24.835C17.4422 24.2806 17.6125 23.5986 17.6125 22.9166C17.6125 22.1883 18.6241 18.5668 19.1299 16.8471L25.1994 2.88721Z" fill="white"/>
<path d="M23.2975 2.44223C22.8929 3.73706 20.8697 8.99732 18.8465 14.1766C15.9332 21.9456 15.4476 24.0497 16.095 25.7492C16.5806 26.9631 16.9043 28.0152 16.9043 28.2579C16.9043 28.5007 13.91 28.5817 10.2683 28.4198C4.19874 28.177 3.55132 28.0152 3.55132 26.5585C3.55132 25.1018 4.03689 24.9399 8.24509 25.1827C10.7538 25.2636 12.8579 25.0209 12.8579 24.6162C12.8579 23.6451 11.4822 23.1595 7.03118 22.5121C3.7941 22.0266 3.22762 22.1884 2.01371 23.807C0.39517 26.1538 0.39517 27.2868 2.01371 28.9054C2.98483 29.9574 5.25079 30.2002 13.3435 30.2002C22.812 30.2002 25.9681 29.3909 21.3553 28.2579C20.2223 27.9342 18.8465 26.8013 18.361 25.7492C17.6326 24.0497 18.0373 22.2693 21.3553 13.6102C23.4594 8.02619 25.4016 3.49428 25.7253 3.49428C25.9681 3.49428 26.9392 4.06077 27.7485 4.70818C29.8526 6.32672 34.7082 6.2458 36.9742 4.62726C38.0262 3.89891 38.9974 3.49428 39.2401 3.73706C39.9685 4.4654 46.8473 22.8358 46.8473 24.1307C46.8473 25.992 43.853 28.5817 41.7489 28.5817C40.6968 28.5817 39.1592 27.8533 38.4309 27.044C36.5695 25.0209 28.5578 24.859 26.4537 26.8013C24.6733 28.3389 24.5923 30.2002 26.2109 30.2002C26.8583 30.2002 27.4248 29.6337 27.4248 28.9863C27.4248 27.2868 30.4191 27.4487 31.4711 29.1481C32.2804 30.5239 32.2804 30.5239 33.0897 29.1481C34.1417 27.4487 37.136 27.2868 37.136 28.9863C37.136 29.8765 38.1072 30.2002 40.8587 30.2002C45.3906 30.2002 47.171 29.31 48.3849 26.3157C49.2751 24.1307 48.9514 22.7549 45.2287 12.72C42.8819 6.48858 40.6968 1.14739 40.3731 0.823686C40.0494 0.419051 38.4309 1.06647 36.7314 2.19945C32.9278 4.78911 31.633 4.78911 27.9104 2.28037C26.2918 1.14739 24.7542 0.257197 24.5114 0.257197C24.3496 0.257197 23.7831 1.22832 23.2975 2.44223Z" fill="black"/>
<path d="M27.4248 13.2054C27.4248 13.61 27.8294 14.0146 28.2341 14.0146C28.7196 14.0146 29.0433 13.61 29.0433 13.2054C29.0433 12.7198 28.7196 12.3961 28.2341 12.3961C27.8294 12.3961 27.4248 12.7198 27.4248 13.2054Z" fill="black"/>
<path d="M35.5176 13.2054C35.5176 13.61 35.9222 14.0146 36.3268 14.0146C36.8124 14.0146 37.1361 13.61 37.1361 13.2054C37.1361 12.7198 36.8124 12.3961 36.3268 12.3961C35.9222 12.3961 35.5176 12.7198 35.5176 13.2054Z" fill="black"/>
</svg>
