<?xml version="1.0" standalone="no"?>
<!DOCTYPE svg PUBLIC "-//W3C//DTD SVG 20010904//EN"
 "http://www.w3.org/TR/2001/REC-SVG-20010904/DTD/svg10.dtd">
<svg version="1.0" xmlns="http://www.w3.org/2000/svg"
 width="64.000000pt" height="64.000000pt" viewBox="0 0 64.000000 64.000000"
 preserveAspectRatio="xMidYMid meet">

<g transform="translate(0.000000,64.000000) scale(0.100000,-0.100000)"
fill="#000000" stroke="none">
<path d="M299 353 c-5 -16 -30 -81 -55 -145 -36 -96 -42 -122 -34 -143 6 -15
10 -28 10 -31 0 -3 -37 -4 -82 -2 -75 3 -83 5 -83 23 0 18 6 20 58 17 31 -1
57 2 57 7 0 12 -17 18 -72 26 -40 6 -47 4 -62 -16 -20 -29 -20 -43 0 -63 12
-13 40 -16 140 -16 117 0 156 10 99 24 -14 4 -31 18 -37 31 -9 21 -4 43 37
150 26 69 50 125 54 125 3 0 15 -7 25 -15 26 -20 86 -19 114 1 13 9 25 14 28
11 9 -9 94 -236 94 -252 0 -23 -37 -55 -63 -55 -13 0 -32 9 -41 19 -23 25
-122 27 -148 3 -22 -19 -23 -42 -3 -42 8 0 15 7 15 15 0 21 37 19 50 -2 10
-17 10 -17 20 0 13 21 50 23 50 2 0 -11 12 -15 46 -15 56 0 78 11 93 48 11 27
7 44 -39 168 -29 77 -56 143 -60 147 -4 5 -24 -3 -45 -17 -47 -32 -63 -32
-109 -1 -20 14 -39 25 -42 25 -2 0 -9 -12 -15 -27z"/>
<path d="M350 220 c0 -5 5 -10 10 -10 6 0 10 5 10 10 0 6 -4 10 -10 10 -5 0
-10 -4 -10 -10z"/>
<path d="M450 220 c0 -5 5 -10 10 -10 6 0 10 5 10 10 0 6 -4 10 -10 10 -5 0
-10 -4 -10 -10z"/>
</g>
</svg>
