<svg width="80" height="51" viewBox="0 0 80 51" fill="none" xmlns="http://www.w3.org/2000/svg">
<path d="M41 5L46.5 7.5L51 9H55L58.5 7.5L62.5 5H64.5L67 10.5L71.5 22.5L75 31L77.5 38V42L74.5 46L69 48.5L62.5 47L62 48.5C62 48.5 59.3476 50.3672 57.5 50.5C55.5138 50.6428 52.5 49 52.5 49C52.5 49 49.8505 50.4162 48 50.5C45.2831 50.623 41.5 48 41.5 48C40.5 48.3333 38.1 48.9 36.5 48.5C34.9 48.1 29.8333 48.6667 27.5 49H20L12 48.5L6 48L4 46V42L6 40.5H10.5H16.5H19.5C22.5 40.5 26.3 41 27.5 41C27.634 41 27.7568 41.0582 27.8685 41.1607C28.2194 40.2472 28.5 39.1236 28.5 38C28.5 36.8 30.1667 30.8333 31 28L41 5Z" fill="white"/>
<path d="M37.8665 4.26666C37.1998 6.4 33.8665 15.0667 30.5331 23.6C25.7331 36.4 24.9331 39.8667 25.9998 42.6667C26.7998 44.6667 27.3331 46.4 27.3331 46.8C27.3331 47.2 22.3998 47.3333 16.3998 47.0667C6.3998 46.6667 5.33314 46.4 5.33314 44C5.33314 41.6 6.13314 41.3333 13.0665 41.7333C17.1998 41.8667 20.6665 41.4667 20.6665 40.8C20.6665 39.2 18.3998 38.4 11.0665 37.3333C5.73314 36.5333 4.7998 36.8 2.7998 39.4667C0.133138 43.3333 0.133138 45.2 2.7998 47.8667C4.3998 49.6 8.13314 50 21.4665 50C37.0665 50 42.2665 48.6667 34.6665 46.8C32.7998 46.2667 30.5331 44.4 29.7331 42.6667C28.5331 39.8667 29.1998 36.9333 34.6665 22.6667C38.1331 13.4667 41.3331 6 41.8665 6C42.2665 6 43.8665 6.93333 45.1998 8C48.6665 10.6667 56.6665 10.5333 60.3998 7.86666C62.1331 6.66666 63.7331 6 64.1331 6.4C65.3331 7.6 76.6665 37.8667 76.6665 40C76.6665 43.0667 71.7331 47.3333 68.2665 47.3333C66.5331 47.3333 63.9998 46.1333 62.7998 44.8C59.7331 41.4667 46.5331 41.2 43.0665 44.4C40.1331 46.9333 39.9998 50 42.6665 50C43.7331 50 44.6665 49.0667 44.6665 48C44.6665 45.2 49.5998 45.4667 51.3331 48.2667C52.6665 50.5333 52.6665 50.5333 53.9998 48.2667C55.7331 45.4667 60.6665 45.2 60.6665 48C60.6665 49.4667 62.2665 50 66.7998 50C74.2665 50 77.1998 48.5333 79.1998 43.6C80.6665 40 80.1331 37.7333 73.9998 21.2C70.1331 10.9333 66.5331 2.13333 65.9998 1.6C65.4665 0.933331 62.7998 2 59.9998 3.86666C53.7331 8.13333 51.5998 8.13333 45.4665 4C42.7998 2.13333 40.2665 0.666664 39.8665 0.666664C39.5998 0.666664 38.6665 2.26666 37.8665 4.26666Z" fill="black"/>
<path d="M44.666 22.0002C44.666 22.6668 45.3327 23.3335 45.9993 23.3335C46.7993 23.3335 47.3327 22.6668 47.3327 22.0002C47.3327 21.2002 46.7993 20.6668 45.9993 20.6668C45.3327 20.6668 44.666 21.2002 44.666 22.0002Z" fill="black"/>
<path d="M58 22.0002C58 22.6668 58.6667 23.3335 59.3333 23.3335C60.1333 23.3335 60.6667 22.6668 60.6667 22.0002C60.6667 21.2002 60.1333 20.6668 59.3333 20.6668C58.6667 20.6668 58 21.2002 58 22.0002Z" fill="black"/>
</svg>
